{"title":"Sex Tape (2014) TS *Proper*","uid":10728669,"size":1469240992,"categoryP":"video","categoryS":"movies","magnet":"?xt=urn:btih:fc1c6ae55dc9a4dfad4168df6b563a791b617fd8&amp;dn=Sex+Tape+%282014%29+TS+%2AProper%2A&amp;tr=udp%3A%2F%2Ftracker.openbittorrent.com%3A80&amp;tr=udp%3A%2F%2Fopen.demonii.com%3A1337&amp;tr=udp%3A%2F%2Ftracker.coppersurfer.tk%3A6969&amp;tr=udp%3A%2F%2Fexodus.desync.com%3A6969","seeders":68,"leechers":0,"uploader":"yfjfrj","files":1,"time":1407600377,"description":"Sex Tape (2014) TS *Proper*\n\nA married couple wake up to discover that the sex tape they made the evening before has gone missing, leading to a frantic search for its whereabouts.\n\nDirector: Jake Kasdan\nWriters: Kate Angelo  , Jason Segel  \nStars: Jason Segel, Cameron Diaz, Rob Corddry\n\nMI:\nGeneral\nComplete name                            : D:moviesSex.Tape.2014.D.TS.PROPER.avi\nFormat                                   : AVI\nFormat/Info                              : Audio Video Interleave\nFile size                                : 1.37 GiB\nDuration                                 : 1h 26mn\nOverall bit rate                         : 2 261 Kbps\nWriting library                          : VirtualDub build 35503/release\n\nVideo\nID                                       : 0\nFormat                                   : MPEG-4 Visual\nFormat profile                           : Advanced Simple@L5\nFormat settings, BVOP                    : 2\nFormat settings, QPel                    : No\nFormat settings, GMC                     : No warppoints\nFormat settings, Matrix                  : Default (MPEG)\nCodec ID                                 : XVID\nCodec ID/Hint                            : XviD\nDuration                                 : 1h 26mn\nBit rate                                 : 2 059 Kbps\nWidth                                    : 720 pixels\nHeight                                   : 368 pixels\nDisplay aspect ratio                     : 1.957\nFrame rate                               : 23.976 fps\nColor space                              : YUV\nChroma subsampling                       : 4:2:0\nBit depth                                : 8 bits\nScan type                                : Progressive\nCompression mode                         : Lossy\nBits/(Pixel*Frame)                       : 0.324\nStream size                              : 1.25 GiB (91%)\nWriting library                          : XviD 1.2.1 (UTC 2008-12-04)\n\nAudio\nID                                       : 1\nFormat                                   : AC-3\nFormat/Info                              : Audio Coding 3\nMode extension                           : CM (complete main)\nFormat settings, Endianness              : Big\nCodec ID                                 : 2000\nDuration                                 : 1h 26mn\nBit rate mode                            : Constant\nBit rate                                 : 192 Kbps\nChannel(s)                               : 2 channels\nChannel positions                        : Front: L R\nSampling rate                            : 48.0 KHz\nBit depth                                : 16 bits\nCompression mode                         : Lossy\nStream size                              : 119 MiB (8%)\nAlignment                                : Split accross interleaves\nInterleave, duration                     : 42 ms (1.00 video frame)\nInterleave, preload duration             : 500 ms\n\nScreens: &lt;a href=&quot;\nhttp://i6.imageban.ru/out/2014/08/09/5a06845c22bf31127eec44f7dc4d1e35.png&quot; rel=&quot;nofollow&quot; target=&quot;_NEW&quot;&gt;\nhttp://i6.imageban.ru/out/2014/08/09/5a06845c22bf31127eec44f7dc4d1e35.png&lt;/a&gt; &lt;a href=&quot;\nhttp://i5.imageban.ru/out/2014/08/09/21aefafbfb3adc54f8d974c8f39430bf.png&quot; rel=&quot;nofollow&quot; target=&quot;_NEW&quot;&gt;\nhttp://i5.imageban.ru/out/2014/08/09/21aefafbfb3adc54f8d974c8f39430bf.png&lt;/a&gt; &lt;a href=&quot;\nhttp://i6.imageban.ru/out/2014/08/09/6e67f6574ede2764b1d0b50bfc9c1a66.png&quot; rel=&quot;nofollow&quot; target=&quot;_NEW&quot;&gt;\nhttp://i6.imageban.ru/out/2014/08/09/6e67f6574ede2764b1d0b50bfc9c1a66.png&lt;/a&gt;\n\n\nSample: &lt;a href=&quot;\nhttp://sendfile.su/1008700&quot; rel=&quot;nofollow&quot; target=&quot;_NEW&quot;&gt;\nhttp://sendfile.su/1008700&lt;/a&gt;\n","torrent":{"xt":"urn:btih:fc1c6ae55dc9a4dfad4168df6b563a791b617fd8","amp;dn":"Sex+Tape+%282014%29+TS+%2AProper%2A","amp;tr":["udp%3A%2F%2Ftracker.openbittorrent.com%3A80","udp%3A%2F%2Fopen.demonii.com%3A1337","udp%3A%2F%2Ftracker.coppersurfer.tk%3A6969","udp%3A%2F%2Fexodus.desync.com%3A6969"],"infoHash":"fc1c6ae55dc9a4dfad4168df6b563a791b617fd8","infoHashBuffer":{"type":"Buffer","data":[252,28,106,229,93,201,164,223,173,65,104,223,107,86,58,121,27,97,127,216]},"announce":[],"urlList":[]}}